<?xml version="1.0"?>
<svg xmlns="http://www.w3.org/2000/svg" id="Layer_1_1_" enable-background="new 0 0 256 256" height="512px" viewBox="0 0 256 256" width="512px" class=""><g><path d="m193.467 164.068 9.159-17.595c-2.179-3.215-6.307-4.672-10.453-4.325-6.114.512-10.655 5.883-10.143 11.997.489 5.84 5.668 9.986 11.437 9.923z" fill="#704c0f" data-original="#704C0F" class="" style="fill:#000000" data-old_color="#704c0f"/><path d="m192.576 146.8c.014-.001.027-.002.041-.003 1.661-.134 2.713 1.75 1.82 3.157-2.382 3.751-3.853 8.032-3.839 12.029.002.592.039 1.185.093 1.776.898.206 1.828.32 2.776.309l9.159-17.595c-.233-.344-.497-.659-.774-.961-.112-.123-.228-.24-.346-.356-.156-.152-.319-.296-.485-.436-.394-.337-.812-.645-1.259-.917-.003-.002-.005-.004-.008-.005-2.158-1.312-4.858-1.876-7.576-1.649-4.058.339-7.577 3.042-9.209 6.773-1.238 2.83-1.173 5.328-.477 7.515.655-5.081 4.774-9.193 10.084-9.637z" fill="#5e400d" data-original="#5E400D" class=""/><path d="m219.873 186.881c5.049-1.965 9.628-5.945 9.628-5.945l8.391-.681.207-5.871s5.483-3.655 7.11-6.572c1.856-3.328 1.31-9.334.683-12.877-.509-2.876-1.955-5.224-3.885-7.21-2.498-2.571-5.805-4.535-8.933-6.255-3.333-1.832-7.753-1.596-11.411-1.312-1.191.093-2.407.231-3.627.41-3.537 7.739 1.837 46.313 1.837 46.313z" fill="#f0c792" data-original="#F0C792" class=""/><path d="m203.349 184.354c3.619 2.966 9.781 4.362 14.343 3.229.729-.181 1.459-.42 2.181-.701 0-.001-5.374-38.574-1.837-46.311-3.306.484-6.652 1.286-9.677 2.437-8.06 3.067-14.931 13.034-14.901 21.662.025 7.469 4.235 15.048 9.891 19.684z" fill="#704c0f" data-original="#704C0F" class="" style="fill:#000000" data-old_color="#704c0f"/><g fill="#5e400d"><path d="m203.285 175.063c4.747 3.282 10.786 3.851 15.564 3.633-.049-.428-.099-.862-.15-1.313-4.571.193-10.294-.354-14.678-3.384-4.104-2.837-7.732-7.388-10.427-11.417-.083.701-.139 1.4-.137 2.088 0 .012.001.025.001.037 2.635 3.739 6.006 7.714 9.827 10.356z" data-original="#5E400D" class=""/><path d="m208.087 156.868c3.242.616 6.382 2.122 9.097 3.805-.034-.533-.064-1.062-.093-1.59-2.637-1.547-5.634-2.893-8.761-3.487-3.945-.749-8.25-1.173-11.933-1.416-.227.414-.442.832-.646 1.255 3.755.232 8.248.657 12.336 1.433z" data-original="#5E400D" class=""/><path d="m197.678 152.059c3.405-1.092 7.434-2.144 10.936-2.397 2.818-.204 5.693.456 8.218 1.376 0-.472.005-.929.011-1.383-2.555-.882-5.44-1.493-8.322-1.285-3.082.223-6.5 1.021-9.578 1.933-.447.567-.864 1.156-1.265 1.756z" data-original="#5E400D" class=""/></g><path d="m47 167-39.109 15.262c-1.141.445-1.891 1.544-1.891 2.768 0 1.64 1.33 2.97 2.97 2.97h29.95c3.056 0 5.791-1.895 6.864-4.756.77-2.054 2.419-3.654 4.495-4.363l31.528-10.766c4.075-1.391 7.777-3.698 10.821-6.743l7.186-7.186-11.567-13.19z" fill="#f5d3a6" data-original="#F5D3A6" class=""/><path d="m168 84c-30 5-66 41-66 41l-9 13-4.753 2.996 11.567 13.19 7.186-7.186 43.491-18.121c2.976-1.24 6.169-1.879 9.393-1.879 6.477 0 12.689-2.573 17.269-7.153l3.847-3.847z" fill="#514654" data-original="#514654" class="" style="fill:#AA17D2" data-old_color="#514654"/><path d="m168 84 13 32s5.85-2.918 11.297-3.766l-.613-30.438z" fill="#f5d3a6" data-original="#F5D3A6" class=""/><path d="m241.813 110.937-.242-2.657c-.366-4.021-2.314-7.732-5.416-10.317l-7.155-5.963-6.305-4.204c-7.566-5.044-16.635-7.337-25.689-6.495l-5.322.495.613 30.438c.922-.143 1.834-.234 2.703-.234 1.981 0 3.963 1.091 5.728 2.552 4.009 3.318 6.315 8.265 6.591 13.462l.055 1.031c.29 5.469 3.563 10.336 8.518 12.669l.217.102c.018.009.036.017.055.026 2.833 1.32 6.142 1.136 8.931-.275l9.006-4.555c3.107-1.572 5.238-4.577 5.692-8.029l1.837-13.944c.245-1.353.307-2.733.183-4.102z" fill="#7f8b4b" data-original="#7F8B4B" class="" style="fill:#F788EE" data-old_color="#7f8b4b"/><path d="m92.628 157.372c-3.045 3.045-6.746 5.351-10.821 6.743l-31.528 10.766c-2.075.709-3.725 2.309-4.495 4.363-1.073 2.861-3.808 4.756-6.864 4.756h-29.95c-.87 0-1.646-.381-2.189-.977-.001.001-.001.001-.002.002-.112.123-.211.256-.301.395-.026.04-.047.081-.071.122-.061.104-.116.212-.163.324-.022.051-.042.103-.062.155-.041.112-.073.228-.1.345-.011.05-.026.099-.035.15-.028.168-.047.339-.047.514 0 1.64 1.33 2.97 2.97 2.97h29.95c3.056 0 5.791-1.895 6.864-4.756.77-2.054 2.419-3.654 4.495-4.363l31.528-10.766c4.075-1.391 7.777-3.698 10.821-6.743l7.186-7.186-1.869-2.131z" fill="#f0c792" data-original="#F0C792" class=""/><path d="m177.153 115.847c-4.58 4.58-10.792 7.153-17.269 7.153-3.224 0-6.417.638-9.393 1.879l-43.491 18.121-7.186 7.186-1.869 1.869 1.869 2.131 7.186-7.186 43.491-18.121c2.976-1.24 6.169-1.879 9.393-1.879 6.477 0 12.689-2.573 17.269-7.153l3.847-3.847-1.156-2.844z" fill="#403742" data-original="#403742" class=""/><path d="m181 112-1.156 1.156 1.156 2.844s5.85-2.918 11.297-3.766l-.08-3.986c-5.425.864-11.217 3.752-11.217 3.752z" fill="#f0c792" data-original="#F0C792" class=""/><path d="m241.813 110.937-.064-.707c-.034.27-.07.54-.119.808l-1.837 13.944c-.455 3.452-2.585 6.457-5.692 8.029l-9.006 4.555c-2.789 1.411-6.098 1.595-8.931.275-.018-.009-.036-.017-.055-.026l-.217-.102c-4.955-2.333-8.228-7.2-8.518-12.669l-.055-1.031c-.276-5.197-2.581-10.144-6.591-13.462-1.765-1.46-3.747-2.551-5.728-2.551-.869 0-1.781.091-2.703.234-.027.004-.054.01-.08.014l.08 3.986c.922-.143 1.834-.234 2.703-.234 1.981 0 3.963 1.091 5.728 2.552 4.009 3.318 6.315 8.265 6.591 13.462l.055 1.031c.29 5.469 3.563 10.336 8.518 12.669l.217.102c.018.009.036.017.055.026 2.833 1.32 6.142 1.136 8.931-.275l9.006-4.555c3.107-1.572 5.238-4.577 5.692-8.029l1.837-13.944c.245-1.353.307-2.733.183-4.102z" fill="#727d43" data-original="#727D43" class="active-path" style="fill:#E444D7" data-old_color="#727d43"/><path d="m250.067 173.228c-1.759-12.761-11.386-37.373-16.455-49.216l-.693-1.62c-.705-1.646-1.927-3.017-3.481-3.905-2.804-1.602-6.285-1.416-8.902.477l-1.385 1.002c-1.544 1.117-2.653 2.735-3.136 4.578-1.372 5.23-.19 10.801 3.188 15.024 4.3 5.375 12.871 24.164 13.006 31.046l.155 7.923-5.364-.537-20 1h-10l-23.714 5.691c-.754.181-1.286.855-1.286 1.631 0 .927.751 1.677 1.677 1.677h26.323l45.223 1.966c.513.022 1.027-.049 1.514-.212h.001c1.403-.468 2.458-1.637 2.778-3.081.982-4.412 1.168-8.965.551-13.444z" fill="#f5d3a6" data-original="#F5D3A6" class=""/></g> </svg>
